<svg width="28" height="28" viewBox="0 0 28 28" fill="none" xmlns="http://www.w3.org/2000/svg">
<path fill-rule="evenodd" clip-rule="evenodd" d="M15.6612 27.1812H20.2542C24.0942 27.1812 27.1812 24.0942 27.1059 20.2542V6.85178C27.1059 3.08707 24.0189 0 20.2542 0H6.85178C3.08707 0 0 3.08707 0 6.85178V20.2542C0 24.0189 3.08707 27.1059 6.85178 27.1059H11.4447L11.4454 27.1057V17.393H8.05712V13.553H11.4454V10.6165C11.4454 7.22824 13.4783 5.42117 16.5654 5.42117C18.0713 5.42117 19.5771 5.64706 19.5771 5.64706V9.0353H17.9207C16.2642 9.0353 15.7371 10.0894 15.7371 11.1435V13.6282H19.4265L18.8242 17.4683H15.6618V27.1059H15.4503L15.6612 27.1812Z" fill="#E7E7E7"/>
</svg>
