<svg width="16" height="21" viewBox="0 0 16 21" fill="none" xmlns="http://www.w3.org/2000/svg">
<path fill-rule="evenodd" clip-rule="evenodd" d="M14.3984 3.10261C13.6042 0.724747 11.0327 -0.559036 8.65483 0.235205C7.89878 0.487738 7.39581 1.20386 7.41484 2.00074L7.50019 5.57625C7.5181 6.32724 7.97582 6.99754 8.66875 7.28763L9.33359 7.56596C9.68085 7.71136 9.9156 8.04821 9.89128 8.42385C9.76541 10.3647 8.85651 12.1853 7.38089 13.4523C7.09527 13.6975 6.68496 13.7123 6.36005 13.5222L5.73803 13.1581C5.08974 12.7786 4.27891 12.8156 3.66791 13.2526L0.758843 15.3332C0.110483 15.7969 -0.159613 16.6292 0.0929202 17.3853C0.887161 19.7632 3.45867 21.0469 5.83653 20.2527L6.67948 19.9712C13.3141 17.7551 16.8961 10.5802 14.68 3.94556L14.3984 3.10261Z" fill="white"/>
</svg>
