<svg width="28" height="28" viewBox="0 0 28 28" fill="none" xmlns="http://www.w3.org/2000/svg">
<path d="M21.2522 5.00085C20.3146 5.00085 19.6113 5.70408 19.6113 6.64172C19.6113 7.57935 20.3146 8.28258 21.2522 8.28258C22.1898 8.28258 22.8931 7.57935 22.8931 6.64172C22.8931 5.70408 22.1898 5.00085 21.2522 5.00085Z" fill="#E7E7E7"/>
<path d="M14.0654 7.03259C10.3149 7.03259 7.18945 10.0799 7.18945 13.9086C7.18945 17.6591 10.2368 20.7846 14.0654 20.7846C17.816 20.7846 20.9414 17.7373 20.9414 13.9086C20.8633 10.158 17.816 7.03259 14.0654 7.03259ZM14.0654 18.2842C11.6432 18.2842 9.68981 16.3308 9.68981 13.9086C9.68981 11.4864 11.6432 9.53295 14.0654 9.53295C16.4877 9.53295 18.4411 11.4864 18.4411 13.9086C18.4411 16.3308 16.4877 18.2842 14.0654 18.2842Z" fill="#E7E7E7"/>
<path d="M19.4559 27.8165H8.36058C3.75054 27.8165 0 24.066 0 19.4559V8.36058C0 3.75054 3.75054 0 8.36058 0H19.4559C24.066 0 27.8165 3.75054 27.8165 8.36058V19.4559C27.8165 24.066 24.066 27.8165 19.4559 27.8165ZM8.36058 2.65663C5.157 2.65663 2.65663 5.23513 2.65663 8.36058V19.4559C2.65663 22.6595 5.23513 25.1599 8.36058 25.1599H19.4559C22.6595 25.1599 25.1599 22.5814 25.1599 19.4559V8.36058C25.1599 5.157 22.5814 2.65663 19.4559 2.65663H8.36058Z" fill="#E7E7E7"/>
</svg>
