<svg width="93" height="97" viewBox="0 0 93 97" fill="none" xmlns="http://www.w3.org/2000/svg">
<g clip-path="url(#clip0_440_4035)">
<path d="M7.51069 34.9557L9.30077 36.6401L8.88806 37.539L3.22385 32.1334L3.69871 31.0784L11.4655 31.8934L11.0476 32.8268L8.60108 32.5642L7.51069 34.9557ZM7.84352 32.4257L5.60256 32.195C5.09418 32.148 4.6558 32.0554 4.21929 31.9737L4.21222 31.9973C4.56166 32.2841 4.92376 32.58 5.26799 32.9014L6.90422 34.4668L7.84352 32.4257Z" fill="#BE7E00"/>
<path d="M11.1327 31.5026L9.84392 27.7516C9.73915 27.4004 9.63997 27.0817 9.54413 26.7177L9.5188 26.6997L7.94204 29.1075L7.28902 28.6714L9.51943 25.2785L10.0115 25.6192L11.2802 29.3178C11.4065 29.6653 11.5076 29.9948 11.6015 30.348L11.6142 30.357L13.325 27.7583L13.9653 28.1854L11.5938 31.7927L11.1327 31.5026Z" fill="#BE7E00"/>
<path d="M16.1126 23.4639C16.5202 23.8303 16.895 24.1352 17.228 24.3913L16.6714 25.0351L15.98 24.5049L15.9603 24.5194C16.1199 24.9956 16.166 25.7821 15.545 26.5041C14.9974 27.1352 13.9946 27.5759 12.5927 26.3396L10.2599 24.2783L10.8916 23.5545L13.1049 25.5019C13.8656 26.177 14.5804 26.39 15.1567 25.7316C15.5844 25.2441 15.541 24.6026 15.3368 24.1901C15.2693 24.0562 15.1549 23.908 15.0245 23.7961L12.574 21.632L13.2057 20.9082L16.1126 23.4639Z" fill="#BE7E00"/>
<path d="M15.6596 20.8894C15.2461 20.4233 14.878 20.0277 14.5282 19.6738L15.1537 19.1076L15.8734 19.868L15.9021 19.8407C15.6043 19.1422 15.7351 18.4148 16.2173 17.9851C16.2944 17.9159 16.3644 17.8704 16.4452 17.8229L17.051 18.5022C16.9594 18.5515 16.8804 18.6098 16.7836 18.6935C16.2728 19.1505 16.2608 19.8575 16.6464 20.485C16.721 20.5953 16.7992 20.7273 16.9099 20.8538L18.798 22.9802L18.0847 23.6173L15.6596 20.8894Z" fill="#BE7E00"/>
<path d="M18.169 14.0017L18.9714 13.4948L22.4909 19.1007L25.1584 17.412L25.5876 18.0992L22.1177 20.2949L18.169 14.0017Z" fill="#BE7E00"/>
<path d="M24.083 11.2743C24.2433 11.5601 24.148 11.9121 23.7995 12.0839C23.4923 12.2373 23.1582 12.1044 23.0196 11.8149C22.8664 11.5055 22.9724 11.1517 23.2777 10.9873C23.6065 10.8302 23.9299 10.9649 24.083 11.2743ZM26.1813 17.8627L23.7946 13.0917L24.6552 12.6643L27.0418 17.4353L26.1813 17.8627Z" fill="#BE7E00"/>
<path d="M28.2764 16.854L26.5235 12.6008L25.8279 12.8881L25.5554 12.2075L26.2402 11.9221L26.1451 11.6923C25.86 11.0027 25.7514 10.3053 25.9985 9.73694C26.1976 9.27757 26.5866 8.95342 27.0018 8.78144C27.3128 8.64974 27.617 8.6087 27.817 8.60793L27.9782 9.35234C27.8214 9.34569 27.6143 9.37005 27.3663 9.47976C26.6096 9.79987 26.6933 10.5464 27.0005 11.2993L27.1119 11.5599L28.2946 11.066L28.5778 11.7446L27.3952 12.2386L29.1482 16.4918L28.2764 16.854Z" fill="#BE7E00"/>
<path d="M30.4502 13.3255C30.8431 14.5784 31.7925 14.863 32.7134 14.593C33.3808 14.4001 33.7397 14.1595 34.0428 13.9172L34.3942 14.5395C34.1127 14.778 33.6048 15.1225 32.8009 15.3613C31.2342 15.8204 30.0009 15.0475 29.5467 13.503C29.0926 11.9585 29.6388 10.4772 31.1209 10.0437C32.7828 9.55704 33.6574 10.8951 33.9296 11.833C33.9848 12.025 34.0109 12.1772 34.0277 12.275L30.4502 13.3255ZM32.9676 11.8639C32.8091 11.2645 32.2871 10.4254 31.2384 10.7285C30.3067 11.0003 30.1432 11.9907 30.2697 12.6627L32.9676 11.8639Z" fill="#BE7E00"/>
<path d="M40.6234 11.568L39.8932 13.9201L38.9059 13.9329L41.2924 6.46266L42.4454 6.44376L45.0926 13.8331L44.0729 13.8515L43.2393 11.5218L40.6234 11.568ZM43.035 10.7848L42.2801 8.65408C42.1079 8.16894 41.9882 7.73072 41.8703 7.30337L41.8487 7.30708C41.7468 7.74977 41.636 8.20518 41.5017 8.65343L40.8172 10.8186L43.035 10.7848Z" fill="#BE7E00"/>
<path d="M49.5042 9.09254L49.4151 9.86872L47.1324 9.58921L46.5861 14.114L45.6431 13.9962L46.2785 8.69518L49.5042 9.09254Z" fill="#BE7E00"/>
<path d="M50.3189 12.1531C50.0274 13.434 50.7181 14.1547 51.6474 14.3868C52.3204 14.551 52.7509 14.533 53.1397 14.4663L53.1422 15.1931C52.7769 15.267 52.1717 15.3038 51.3471 15.0985C49.7574 14.7112 49.0669 13.4087 49.4432 11.8447C49.8196 10.2807 51.0371 9.27725 52.5347 9.64676C54.2182 10.0627 54.3033 11.6594 54.0783 12.6155C54.0345 12.8133 53.9705 12.9585 53.9403 13.042L50.3189 12.1531ZM53.2324 12.1565C53.3856 11.5595 53.36 10.5681 52.3026 10.302C51.3517 10.0736 50.7274 10.841 50.4934 11.4854L53.2324 12.1565Z" fill="#BE7E00"/>
<path d="M56.9368 11.1291L56.1323 13.1135L58.464 14.0672L59.2667 12.0719L60.1517 12.4347L58.1538 17.3765L57.2688 17.0137L58.1745 14.777L55.8447 13.8343L54.939 16.071L54.054 15.7082L56.0518 10.7664L56.9368 11.1291Z" fill="#BE7E00"/>
<path d="M64.8564 15.096L64.4711 15.7664L63.0392 14.938L60.7833 18.8947L59.9571 18.4211L62.213 14.4644L60.7811 13.636L61.1664 12.9657L64.8564 15.096Z" fill="#BE7E00"/>
<path d="M65.6237 22.0254C65.3388 21.9848 64.7845 21.8002 64.2109 21.3728C62.9242 20.4187 62.7315 18.9077 63.6949 17.5898C64.6691 16.27 66.2656 15.9848 67.6554 17.0218C68.1151 17.3681 68.4311 17.7838 68.5641 18.0407L67.9434 18.5053C67.8357 18.2664 67.614 17.9464 67.1942 17.6381C66.2134 16.9113 65.1468 17.2398 64.4999 18.1342C63.7688 19.1212 63.9554 20.2082 64.8077 20.8339C65.2528 21.1603 65.6264 21.264 65.9151 21.3264L65.6237 22.0254Z" fill="#BE7E00"/>
<path d="M72.3861 21.3908L71.8596 21.9511L70.6619 20.8028L67.5373 24.103L66.8451 23.4385L69.9697 20.1383L68.772 18.99L69.2984 18.4297L72.3861 21.3908Z" fill="#BE7E00"/>
<path d="M73.0483 22.2061C73.3363 22.4587 73.8221 22.9572 74.2159 23.4379C74.7785 24.1245 75.602 25.3595 74.6876 26.1207C74.182 26.5432 73.547 26.406 73.0582 26.02L73.0385 26.0345C73.4443 26.7146 73.4684 27.4377 72.873 27.9204C71.8026 28.8091 70.5538 27.5576 69.8914 26.7426C69.5121 26.2818 69.1577 25.772 68.996 25.5424L73.0483 22.2061ZM70.0609 25.8519C70.2118 26.0834 70.328 26.2425 70.5259 26.4882C70.9342 26.9888 71.6696 27.6458 72.2631 27.1523C72.8584 26.6697 72.4921 25.9605 71.9131 25.2431L71.463 24.6937L70.0609 25.8519ZM71.9634 24.3057L72.4262 24.864C72.8781 25.4243 73.5077 25.8533 73.9846 25.4581C74.3934 25.1194 74.2931 24.5995 73.6761 23.855C73.4782 23.6093 73.3314 23.4666 73.1701 23.3041L71.9634 24.3057Z" fill="#BE7E00"/>
<path d="M76.9229 32.2724C75.2406 33.2885 73.8129 32.5489 73.1451 31.4439C72.4099 30.205 72.7416 28.7046 74.1833 27.8417C75.7058 26.9313 77.1968 27.3915 77.9484 28.6612C78.7399 29.9687 78.3144 31.4405 76.9229 32.2724ZM74.7143 28.6681C73.716 29.2646 73.3149 30.2958 73.799 31.1079C74.2685 31.9 75.3739 32.0571 76.39 31.4351C77.1567 30.979 77.9113 29.9991 77.3199 29.0152C76.7393 28.0295 75.5796 28.1391 74.7143 28.6681Z" fill="#BE7E00"/>
<path d="M83.098 34.8271L80.1595 35.7792L81.259 39.2046L84.1975 38.2526L84.4894 39.176L77.4524 41.447L77.1605 40.5236L80.4569 39.4542L79.3574 36.0287L76.0611 37.0981L75.771 36.1856L82.808 33.9146L83.098 34.8271Z" fill="#BE7E00"/>
<path d="M80.1831 42.7135C78.8979 42.9341 78.4852 43.8329 78.6386 44.7913C78.7454 45.4779 78.9243 45.8724 79.1262 46.207L78.472 46.4759C78.2738 46.1631 78.0002 45.6058 77.8781 44.7652C77.6325 43.1401 78.561 42.0073 80.1433 41.7692C81.7257 41.5311 83.1121 42.289 83.3409 43.8162C83.6033 45.5391 82.1641 46.2226 81.1992 46.3658C81.0048 46.3992 80.848 46.3925 80.749 46.3984L80.1831 42.7135ZM81.282 45.4229C81.8905 45.3408 82.7998 44.9385 82.6367 43.8588C82.4922 42.8877 81.5409 42.5923 80.8672 42.6184L81.282 45.4229Z" fill="#BE7E00"/>
<path d="M83.6539 51.7296L79.0757 51.7435L79.07 52.2928L76.6715 52.2457L76.6742 51.4844L78.3568 51.4417L78.3459 47.7511L76.6592 47.7049L76.6619 46.9436L79.067 46.9L79.0768 47.3458C79.4169 47.5784 79.7801 47.751 80.1682 47.8746C80.8271 48.086 81.5429 48.1757 82.2889 48.1819L83.6673 48.1803L83.6539 51.7296ZM82.0345 49.0313C81.3336 49.0285 80.6501 48.9332 80.0654 48.7651C79.7026 48.6595 79.3755 48.503 79.079 48.3301L79.0899 50.7899L82.924 50.7807L82.9119 49.0261L82.0345 49.0313Z" fill="#BE7E00"/>
<path d="M83.4641 53.6651C83.4736 54.0439 83.4381 54.7438 83.3444 55.3641C83.2181 56.2473 82.8771 57.6934 81.7032 57.5256C81.054 57.4357 80.7246 56.8768 80.6741 56.2589L80.6506 56.2517C80.4371 57.0157 79.923 57.5179 79.1602 57.4139C77.7807 57.2143 77.8441 55.4467 77.9875 54.4038C78.0759 53.818 78.193 53.2049 78.2563 52.9255L83.4641 53.6651ZM78.772 53.9223C78.6962 54.1927 78.6631 54.3886 78.6252 54.686C78.5353 55.328 78.5483 56.3105 79.3129 56.4254C80.0757 56.5294 80.338 55.7906 80.4695 54.8729L80.5717 54.1728L78.772 53.9223ZM81.2011 54.2774L81.1027 54.9992C81.0024 55.7102 81.1114 56.4747 81.7263 56.5594C82.2511 56.6371 82.5675 56.2136 82.6915 55.2524C82.7365 54.9313 82.7353 54.7301 82.752 54.5035L81.2011 54.2774Z" fill="#BE7E00"/>
<path d="M82.3411 60.3373L80.1949 59.6874C79.3863 59.4458 78.8809 59.2864 78.1694 59.0281L78.1642 59.0626C78.6825 59.5554 78.9868 59.8389 79.4745 60.3482L81.6291 62.7309L81.3039 63.8162L76.2284 62.2929L76.488 61.4092L78.645 62.0571C79.477 62.3059 79.9031 62.4566 80.7084 62.7435L80.7136 62.7091C80.1574 62.1891 79.8203 61.8442 79.387 61.3927C78.7394 60.6646 77.9273 59.8194 77.1963 58.9937L77.5125 57.9212L82.6007 59.4535L82.3411 60.3373Z" fill="#BE7E00"/>
<path d="M80.4557 66.0661L77.601 66.6009L77.5102 66.7843L79.5795 67.8279L79.1664 68.6598L77.097 67.6162L77.0151 67.7869L78.31 70.4071L77.8149 71.4097L76.5829 68.443C76.1436 69.1227 75.5143 69.3427 74.6199 69.25C74.0754 69.1868 73.4928 69.0966 73.0261 69.0984L73.4553 68.2302C73.8192 68.2125 74.2754 68.2796 74.7641 68.3412C75.6909 68.4283 76.1358 68.1057 76.4511 67.4809L76.5259 67.3338L74.4223 66.2849L74.8354 65.453L76.9391 66.5019L77.012 66.3439C77.3414 65.6719 77.2951 65.1427 76.6657 64.4562C76.3356 64.0876 76.0256 63.7715 75.8057 63.4624L76.217 62.6196C76.5058 63.0065 76.9209 63.4164 77.289 63.812C77.9057 64.4895 78.1256 65.1232 77.8454 65.8875L80.9418 65.0762L80.4557 66.0661Z" fill="#BE7E00"/>
<path d="M76.4917 73.2256L74.6946 71.8892C74.0178 71.3788 73.5961 71.0596 73.013 70.5778L72.9952 70.6032C73.3161 71.2419 73.5128 71.6109 73.7924 72.2679L75.0153 75.2469L74.3486 76.1558L70.0795 72.9836L70.6301 72.2401L72.4398 73.5854C73.1401 74.103 73.4896 74.3899 74.1504 74.9366L74.1683 74.9112C73.8184 74.2328 73.6085 73.7876 73.3655 73.2139C72.9999 72.3144 72.525 71.2322 72.1172 70.2168L72.775 69.3207L77.0441 72.4929L76.4917 73.2256Z" fill="#BE7E00"/>
<path d="M73.0507 77.6656L72.2034 78.4936L69.6429 77.2436C69.276 77.0492 68.6561 76.7416 68.2747 76.5273L68.255 76.5419C68.4409 76.9128 68.8259 77.7307 69.0779 78.2917L70.0786 80.5592L69.2223 81.3999L65.2537 77.8404L65.9093 77.1908L67.7646 78.9311C68.1867 79.3174 68.6885 79.7796 69.1542 80.2255L69.172 80.2001C68.9387 79.7478 68.7364 79.3462 68.3894 78.5553L67.2459 75.9095L67.7511 75.42L70.252 76.6467C70.7165 76.8914 71.4179 77.2857 71.8626 77.5451L71.8913 77.5178C71.4669 77.0535 70.999 76.5296 70.6216 76.0797L68.9618 74.1827L69.5995 73.5585L73.0507 77.6656Z" fill="#BE7E00"/>
<path d="M62.2164 83.2073C61.1023 81.5747 61.7386 80.1004 62.8028 79.3694C63.9853 78.551 65.4948 78.7954 66.4454 80.1875C67.454 81.6592 67.0829 83.1888 65.8698 84.0236C64.6172 84.8876 63.136 84.5489 62.2164 83.2073ZM65.656 80.7706C65.0017 79.8088 63.951 79.452 63.165 79.9898C62.4095 80.5111 62.3224 81.6226 63.0039 82.6134C63.511 83.3655 64.5294 84.0523 65.4733 83.3979C66.4191 82.7544 66.2213 81.6023 65.656 80.7706Z" fill="#BE7E00"/>
<path d="M56.6829 83.1617C56.8545 82.9309 57.2719 82.5124 57.9079 82.2018C59.3415 81.4857 60.7662 82.0132 61.4847 83.4788C62.2159 84.9533 61.7405 86.5231 60.1829 87.294C59.6709 87.5498 59.1544 87.6496 58.8643 87.6435L58.7318 86.8718C59.0003 86.8816 59.3712 86.8403 59.8419 86.6029C60.9269 86.0586 61.1169 84.963 60.6335 83.9606C60.0883 82.8569 59.0413 82.5219 58.0999 82.9968C57.6077 83.238 57.3463 83.529 57.1531 83.7636L56.6829 83.1617Z" fill="#BE7E00"/>
<path d="M54.1363 89.507L53.8887 88.7774L55.4512 88.2295L53.9556 83.9209L54.8582 83.6093L56.3539 87.9179L57.9164 87.3699L58.1639 88.0995L54.1363 89.507Z" fill="#BE7E00"/>
<path d="M52.2155 89.9821L51.77 87.7759C51.6048 86.9427 51.5044 86.4228 51.3973 85.6691L51.3649 85.6747C51.1834 86.366 51.074 86.7652 50.8564 87.4404L49.7859 90.4663L48.6792 90.6898L47.6141 85.457L48.5157 85.2686L48.963 87.4857C49.132 88.3406 49.2085 88.7863 49.3324 89.6378L49.3648 89.6322C49.5605 88.8937 49.7018 88.4218 49.8912 87.8411C50.2246 86.9334 50.5873 85.8082 50.9541 84.7717L52.0393 84.5519L53.1044 89.7847L52.2155 89.9821Z" fill="#BE7E00"/>
<path d="M36.8027 12.045C37.1546 11.9846 37.3906 11.6485 37.3298 11.2943C37.269 10.9402 36.9344 10.702 36.5825 10.7624C36.2306 10.8229 35.9946 11.1589 36.0554 11.5131C36.1162 11.8673 36.4508 12.1054 36.8027 12.045Z" fill="#BE7E00"/>
</g>
<defs>
<clipPath id="clip0_440_4035">
<rect width="78.9033" height="84.473" fill="white" transform="translate(0 13.3496) rotate(-9.74076)"/>
</clipPath>
</defs>
</svg>
